ModelForces
version=1
nRows=4
nColumns=157
inDegrees=no

This file contains the forces exerted on a model during a simulation.

A force is a generalized force, meaning that it can be either a force (N) or a torque (Nm).

Units are S.I. units (second, meters, Newtons, ...)
Angles are in degrees.

endheader
time	glut_med1_r	glut_med2_r	glut_med3_r	glut_min1_r	glut_min2_r	glut_min3_r	semimem_r	semiten_r	bifemlh_r	bifemsh_r	sar_r	add_long_r	add_brev_r	add_mag1_r	add_mag2_r	add_mag3_r	tfl_r	pect_r	grac_r	glut_max1_r	glut_max2_r	glut_max3_r	iliacus_r	psoas_r	quad_fem_r	gem_r	peri_r	rect_fem_r	vas_med_r	vas_int_r	vas_lat_r	med_gas_r	lat_gas_r	soleus_r	tib_post_r	flex_dig_r	flex_hal_r	tib_ant_r	per_brev_r	per_long_r	per_tert_r	ext_dig_r	ext_hal_r	glut_med1_l	glut_med2_l	glut_med3_l	glut_min1_l	glut_min2_l	glut_min3_l	semimem_l	semiten_l	bifemlh_l	bifemsh_l	sar_l	add_long_l	add_brev_l	add_mag1_l	add_mag2_l	add_mag3_l	tfl_l	pect_l	grac_l	glut_max1_l	glut_max2_l	glut_max3_l	iliacus_l	psoas_l	quad_fem_l	gem_l	peri_l	rect_fem_l	vas_med_l	vas_int_l	vas_lat_l	med_gas_l	lat_gas_l	soleus_l	tib_post_l	flex_dig_l	flex_hal_l	tib_ant_l	per_brev_l	per_long_l	per_tert_l	ext_dig_l	ext_hal_l	ercspn_r	ercspn_l	intobl_r	intobl_l	extobl_r	extobl_l	femur_lat_meniscii_r.femur_lat_r.force.X	femur_lat_meniscii_r.femur_lat_r.force.Y	femur_lat_meniscii_r.femur_lat_r.force.Z	femur_lat_meniscii_r.femur_lat_r.torque.X	femur_lat_meniscii_r.femur_lat_r.torque.Y	femur_lat_meniscii_r.femur_lat_r.torque.Z	femur_lat_meniscii_r.meniscus_lat_r.force.X	femur_lat_meniscii_r.meniscus_lat_r.force.Y	femur_lat_meniscii_r.meniscus_lat_r.force.Z	femur_lat_meniscii_r.meniscus_lat_r.torque.X	femur_lat_meniscii_r.meniscus_lat_r.torque.Y	femur_lat_meniscii_r.meniscus_lat_r.torque.Z	femur_med_meniscii_r.femur_med_r.force.X	femur_med_meniscii_r.femur_med_r.force.Y	femur_med_meniscii_r.femur_med_r.force.Z	femur_med_meniscii_r.femur_med_r.torque.X	femur_med_meniscii_r.femur_med_r.torque.Y	femur_med_meniscii_r.femur_med_r.torque.Z	femur_med_meniscii_r.meniscus_med_r.force.X	femur_med_meniscii_r.meniscus_med_r.force.Y	femur_med_meniscii_r.meniscus_med_r.force.Z	femur_med_meniscii_r.meniscus_med_r.torque.X	femur_med_meniscii_r.meniscus_med_r.torque.Y	femur_med_meniscii_r.meniscus_med_r.torque.Z	femur_med_tibia_r.tibia_upper_r.force.X	femur_med_tibia_r.tibia_upper_r.force.Y	femur_med_tibia_r.tibia_upper_r.force.Z	femur_med_tibia_r.tibia_upper_r.torque.X	femur_med_tibia_r.tibia_upper_r.torque.Y	femur_med_tibia_r.tibia_upper_r.torque.Z	femur_med_tibia_r.femur_med_r.force.X	femur_med_tibia_r.femur_med_r.force.Y	femur_med_tibia_r.femur_med_r.force.Z	femur_med_tibia_r.femur_med_r.torque.X	femur_med_tibia_r.femur_med_r.torque.Y	femur_med_tibia_r.femur_med_r.torque.Z	femur_lat_tibia_r.tibia_upper_r.force.X	femur_lat_tibia_r.tibia_upper_r.force.Y	femur_lat_tibia_r.tibia_upper_r.force.Z	femur_lat_tibia_r.tibia_upper_r.torque.X	femur_lat_tibia_r.tibia_upper_r.torque.Y	femur_lat_tibia_r.tibia_upper_r.torque.Z	femur_lat_tibia_r.femur_lat_r.force.X	femur_lat_tibia_r.femur_lat_r.force.Y	femur_lat_tibia_r.femur_lat_r.force.Z	femur_lat_tibia_r.femur_lat_r.torque.X	femur_lat_tibia_r.femur_lat_r.torque.Y	femur_lat_tibia_r.femur_lat_r.torque.Z	aACL_R	pACL_R	aPCL_R	pPCL_R	aMCL_R	mMCL_R	pMCL_R	aLCL_R	mLCL_R	pLCL_R	ground_prescribedForce_fx	ground_prescribedForce_fy	ground_prescribedForce_fz	ground_prescribedForce_px	ground_prescribedForce_py	ground_prescribedForce_pz
      0.75992235	      7.54729669	      5.66530247	      6.06422758	      2.65873242	      3.17872652	      3.19246570	      0.00000000	      3.15482772	      3.50066235	      5.19673254	      0.00000000	      5.61282928	      4.14074748	      2.91869327	      2.45352425	      3.98709050	      2.94371470	      2.23854158	      1.37087007	      3.65578346	      5.55556064	      4.14707978	     22.64678724	     12.96593858	      3.62639098	      2.85418477	      4.08960616	    242.93652164	     43.47232914	     86.39825407	     60.82302211	      0.00000000	      0.00000000	     11.53319785	     13.45800228	      2.61584247	      2.91114341	     12.27351990	      3.94945817	      7.99792167	      9.53248486	      7.86697185	      1.81081835	      7.54729669	      5.66530247	      6.06422758	      2.65873242	      3.17872652	      3.19246570	      8.74429720	      4.08288409	      7.68210861	      7.21545679	      1.51962749	      5.61282928	      4.14074748	      2.91869327	      2.45352425	      3.98709050	      4.09679461	      2.23854158	      1.55858151	      3.65578346	      5.55556064	      4.14707978	     22.64678724	     12.96593858	      3.62639098	      2.85418477	      4.08960616	     10.66615393	      6.59214688	      7.56170785	      8.13088256	     13.95144503	      6.47797579	     31.08371139	     42.35818397	      2.57051929	      2.83419373	      8.45103389	      4.33359013	     12.44567240	      2.00574261	      5.36854580	      1.70378753	     25.00467336	     25.00467336	      8.99939950	      8.99939950	     26.80406970	     26.80406970	    209.44395450	     -0.82199738	     40.06572471	    -16.17544314	      5.17771236	     85.11484107	   -209.44395450	      0.82199738	    -40.06572471	      0.08785298	     -7.11267616	     -1.05650963	     83.78025897	    -61.57540207	    -11.86039489	      3.61732157	     -1.64646110	     33.78552631	    -83.78025897	     61.57540207	     11.86039489	      0.91480288	      1.67644703	     -1.92687676	   -506.95783383	     15.11071606	    104.49010022	     -0.16570408	      9.97389893	     -2.23591034	    506.95783383	    -15.11071606	   -104.49010022	     42.05736694	     -8.84905753	    205.32031217	    -10.03687320	     -1.65038000	     -3.02349235	      0.06114707	     -0.37256626	      0.00047379	     10.03687320	      1.65038000	      3.02349235	     -1.26879383	      0.24802614	      4.07644605	     18.90182695	      2.45541763	    781.41397966	    315.10880389	     29.74829439	      0.00000000	      0.00000000	      0.00000000	      0.00000000	      0.00000000	      0.00000000	   -110.00000000	      0.00000000	      0.03000000	     -0.03000000	      0.00000000
      0.76248176	      7.54723912	      5.66526280	      6.06418459	      2.65871459	      3.17870724	      3.19244140	      0.00000000	      3.15042240	      3.49414465	      5.15250270	      0.00000000	      5.61278952	      4.14071996	      2.91867298	      2.45350678	      3.98705906	      2.94833275	      2.23852647	      1.36332594	      3.65575788	      5.55552166	      4.14705014	     22.64671532	     12.96585774	      3.62636613	      2.85417315	      4.08955939	    245.76369199	     43.33068246	     85.88802393	     60.68933729	      0.00000000	      0.00000000	     11.54675496	     13.42133393	      2.60767488	      2.89689749	     12.28941543	      3.95455087	      8.02130023	      9.52952889	      7.87723581	      1.81968358	      7.54723912	      5.66526280	      6.06418459	      2.65871459	      3.17870724	      3.19244140	      8.74421321	      4.08285325	      7.68203879	      7.21540733	      1.51961735	      5.61278952	      4.14071996	      2.91867298	      2.45350678	      3.98705906	      4.09677517	      2.23852647	      1.55857093	      3.65575788	      5.55552166	      4.14705014	     22.64671532	     12.96585774	      3.62636613	      2.85417315	      4.08955939	     10.66605892	      6.59209967	      7.56165265	      8.13082351	     13.95122374	      6.47787283	     31.08335702	     42.35804584	      2.56838011	      2.83322798	      8.45096243	      4.33354720	     12.44556616	      2.00573006	      5.36956539	      1.70406234	     25.00450531	     25.00450531	      8.99933363	      8.99933363	     26.80401053	     26.80401053	    208.88494466	     -0.81215170	     40.01062290	    -16.15381603	      5.16350555	     84.88648314	   -208.88494466	      0.81215170	    -40.01062290	      0.08842183	     -7.09392944	     -1.05246758	     83.66082017	    -61.53286277	    -11.78369530	      3.58740131	     -1.64417203	     33.73777633	    -83.66082017	     61.53286277	     11.78369530	      0.91432152	      1.67270550	     -1.92584739	   -507.03316446	     15.15453341	    104.35532707	     -0.16450159	      9.97293400	     -2.23824133	    507.03316446	    -15.15453341	   -104.35532707	     42.00186362	     -8.85039573	    205.35119314	     -9.61034933	     -1.57939476	     -2.89925294	      0.05855396	     -0.35684904	      0.00039231	      9.61034933	      1.57939476	      2.89925294	     -1.21659232	      0.23752025	      3.90324104	     18.98568896	      2.54263630	    782.01658868	    316.01522053	     30.20271302	      0.00000000	      0.00000000	      0.00000000	      0.00000000	      0.00000000	      0.00000000	   -110.00000000	      0.00000000	      0.03000000	     -0.03000000	      0.00000000
      0.76576485	      7.54716800	      5.66521378	      6.06413148	      2.65869257	      3.17868342	      3.19241137	      0.00000000	      3.14462501	      3.48705264	      5.13432620	      0.00000000	      5.61274040	      4.14068597	      2.91864792	      2.45348521	      3.98702022	      2.95354815	      2.23850781	      1.36139851	      3.65572628	      5.55547349	      4.14701353	     22.64662646	     12.96575785	      3.62633544	      2.85415879	      4.08950160	    244.97333568	     43.24815163	     85.69139070	     60.57789357	      0.00000000	      0.00000000	     11.55697480	     13.38661203	      2.60038431	      2.87999326	     12.31395340	      3.95625376	      8.04456104	      9.53560930	      7.88537638	      1.83109953	      7.54716800	      5.66521378	      6.06413148	      2.65869257	      3.17868342	      3.19241137	      8.74410946	      4.08281514	      7.68195254	      7.21534622	      1.51960482	      5.61274040	      4.14068597	      2.91864792	      2.45348521	      3.98702022	      4.09675115	      2.23850781	      1.55855785	      3.65572628	      5.55547349	      4.14701353	     22.64662646	     12.96575785	      3.62633544	      2.85415879	      4.08950160	     10.66594155	      6.59204135	      7.56158445	      8.13075056	     13.95095026	      6.47774560	     31.08291922	     42.35787519	      2.56562144	      2.83198731	      8.45087414	      4.33349416	     12.44543489	      2.00571456	      5.37088036	      1.70441610	     25.00429769	     25.00429769	      8.99925225	      8.99925225	     26.80393744	     26.80393744	    208.43020728	     -0.89569643	     39.91351550	    -16.11251391	      5.15150552	     84.70155873	   -208.43020728	      0.89569643	    -39.91351550	      0.08586027	     -7.07614130	     -1.05282949	     83.77024087	    -61.55471223	    -11.76990735	      3.58105352	     -1.64654635	     33.78147838	    -83.77024087	     61.55471223	     11.76990735	      0.91539745	      1.67474905	     -1.92627680	   -507.48982334	     15.19143929	    104.29858707	     -0.16376700	      9.98100525	     -2.24153332	    507.48982334	    -15.19143929	   -104.29858707	     41.97814088	     -8.85898797	    205.53598581	     -9.08461776	     -1.49120134	     -2.74347195	      0.05532259	     -0.33736162	      0.00026066	      9.08461776	      1.49120134	      2.74347195	     -1.15115481	      0.22453758	      3.68975712	     18.88668459	      2.43477404	    782.37602705	    316.01825063	     29.87955570	      0.00000000	      0.00000000	      0.00000000	      0.00000000	      0.00000000	      0.00000000	   -110.00000000	      0.00000000	      0.03000000	     -0.03000000	      0.00000000
      0.76832163	      7.54711466	      5.66517702	      6.06409164	      2.65867605	      3.17866555	      3.19238885	      0.00000000	      3.14265835	      3.48480191	      5.13263341	      0.00000000	      5.61270355	      4.14066047	      2.91862912	      2.45346903	      3.98699108	      2.95533226	      2.23849381	      1.36099045	      3.65570258	      5.55543736	      4.14698607	     22.64655982	     12.96568294	      3.62631242	      2.85414802	      4.08945826	    244.91657315	     43.25499310	     85.68798593	     60.56693006	      0.00000000	      0.00000000	     11.55299630	     13.36357677	      2.59637747	      2.86699566	     12.33681098	      3.95604771	      8.05925871	      9.54439118	      7.88981243	      1.84027385	      7.54711466	      5.66517702	      6.06409164	      2.65867605	      3.17866555	      3.19238885	      8.74403164	      4.08278656	      7.68188785	      7.21530038	      1.51959542	      5.61270355	      4.14066047	      2.91862912	      2.45346903	      3.98699108	      4.09673314	      2.23849381	      1.55854805	      3.65570258	      5.55543736	      4.14698607	     22.64655982	     12.96568294	      3.62631242	      2.85414802	      4.08945826	     10.66585353	      6.59199761	      7.56153330	      8.13069584	     13.95074510	      6.47765015	     31.08259086	     42.35774719	      2.56346154	      2.83101964	      8.45080793	      4.33345438	     12.44533643	      2.00570294	      5.37190989	      1.70469252	     25.00414197	     25.00414197	      8.99919122	      8.99919122	     26.80388261	     26.80388261	    208.06160371	     -0.90389422	     39.85180811	    -16.08747984	      5.14210855	     84.55113102	   -208.06160371	      0.90389422	    -39.85180811	      0.08561849	     -7.06268850	     -1.05085608	     83.91952773	    -61.59275517	    -11.75656590	      3.57469046	     -1.64972313	     33.84114834	    -83.91952773	     61.59275517	     11.75656590	      0.91651385	      1.67734227	     -1.92718568	   -508.85824018	     15.27272418	    104.49720609	     -0.16349517	     10.00914399	     -2.24939712	    508.85824018	    -15.27272418	   -104.49720609	     42.05724700	     -8.88434050	    206.09027300	     -8.76254696	     -1.43711341	     -2.64829396	      0.05334267	     -0.32542966	      0.00017724	      8.76254696	      1.43711341	      2.64829396	     -1.11116953	      0.21658404	      3.55897487	     18.86959558	      2.41458786	    782.55963239	    316.05868364	     29.80081669	      0.00000000	      0.00000000	      0.00000000	      0.00000000	      0.00000000	      0.00000000	   -110.00000000	      0.00000000	      0.03000000	     -0.03000000	      0.00000000
